<?xml version="1.0" encoding="utf-8"?>
<!-- Generator: Adobe Illustrator 22.1.0, SVG Export Plug-In . SVG Version: 6.00 Build 0)  -->
<svg version="1.1" id="Layer_1" xmlns="http://www.w3.org/2000/svg" xmlns:xlink="http://www.w3.org/1999/xlink" x="0px" y="0px"
	 width="121.4px" height="126.8px" viewBox="0 0 121.4 126.8" style="enable-background:new 0 0 121.4 126.8;" xml:space="preserve"
	>
<style type="text/css">
	.st0{fill:none;stroke:#000000;stroke-width:2;stroke-miterlimit:10;}
	.st1{fill:none;stroke:#F56A00;stroke-width:4;stroke-miterlimit:10;}
</style>
<path class="st0" d="M38.5,93.4v18.8c0,1.2,1,2.2,2.2,2.2h40c1.2,0,2.2-1,2.2-2.2V93.4c0-1.2-1-2.2-2.2-2.2h-40
	C39.5,91.2,38.5,92.2,38.5,93.4z M43,95.6h35.5V110H43V95.6z"/>
<path class="st0" d="M9.7,125.8h19.2h31.9h31.9h19.2 M103.8,121.4h-9V81.2c0-1.2-1-2.2-2.2-2.2H75.9H73c0-0.3-0.1-0.6-0.1-0.8l0-1.1
	c-0.1-2.6-0.2-5.2-0.1-7.8c0-0.3,0.2-0.9,0.6-1.5c1.8-2.5,3.7-4.9,5.6-7.4l3.5-4.6c2.9-0.3,8.6-1.1,10.8-1.5
	c14.6-2.7,23.9-11.9,26.1-25.7c0.4-2.7,1.5-15.5,1-16.9c-0.3-0.9-1.2-1.4-2.1-1.4h-16.3V3.2c0-1.2-1-2.2-2.2-2.2h-78
	c-1.2,0-2.2,1-2.2,2.2v7.2H3.2c-0.9,0-1.7,0.6-2.1,1.4c-0.5,1.4,0.6,14.2,1,16.9c2.2,13.8,11.4,22.9,26.1,25.7
	c2.2,0.4,7.9,1.1,10.8,1.5l3.5,4.7c1.9,2.4,3.7,4.9,5.5,7.3c0.4,0.5,0.6,1.1,0.6,1.4c0.1,2.6,0,5.2-0.1,7.8l0,1.1
	c0,0.3,0,0.6-0.1,0.8h-8.2H28.8c-1.2,0-2.2,1-2.2,2.2v40.2h-8.9 M29,50C16.4,47.6,8.4,39.8,6.5,28c-0.5-3.4-1-10.2-1.1-13.2h14.4
	c2,15.5,10.5,29.1,15.5,35.9c0,0,0.1,0.1,0.1,0.1C32.8,50.6,30.3,50.2,29,50z M52.9,79 M53.1,71.3c2.1,1.1,4.8,2.1,7.7,2.1
	c2.9,0,5.5-1,7.7-2.1 M114.9,28c-1.9,11.8-9.9,19.6-22.5,22c-1.2,0.2-3.8,0.6-6.3,0.9c0,0,0.1-0.1,0.1-0.1
	c5-6.9,13.5-20.4,15.5-35.9H116C115.9,18.1,115.5,24.7,114.9,28z"/>
<path class="st1" d="M51.8,33.9l-3.4,10.5c-0.3,0.9,0,1.9,0.8,2.5c0.8,0.6,1.8,0.6,2.6,0l8.9-6.5l9,6.5c0.4,0.3,0.8,0.4,1.3,0.4
	c0.5,0,0.9-0.1,1.3-0.4c0.8-0.6,1.1-1.6,0.8-2.5l-3.4-10.5l9-6.5c0.8-0.6,1.1-1.6,0.8-2.5c-0.3-0.9-1.2-1.5-2.1-1.5H66.3l-3.4-10.5
	c-0.6-1.8-3.6-1.8-4.2,0l-3.4,10.5H44.1c-1,0-1.8,0.6-2.1,1.5c-0.3,0.9,0,1.9,0.8,2.5L51.8,33.9z"/>
</svg>
