<svg width="240" height="240" viewBox="0 0 240 240" fill="none" xmlns="http://www.w3.org/2000/svg">
<path d="M82.5836 171.104V203.129C82.5836 205.173 84.2871 206.877 86.3313 206.877H154.47C156.514 206.877 158.218 205.173 158.218 203.129V171.104C158.218 169.06 156.514 167.356 154.47 167.356H86.3313C84.2871 167.356 82.5836 169.06 82.5836 171.104ZM90.2492 174.852H150.722V199.382H90.2492V174.852Z" stroke="black" stroke-width="3.41791" stroke-miterlimit="10"/>
<path d="M107.255 133.42C110.891 135.288 115.565 136.987 120.587 136.987C125.608 136.987 130.109 135.288 133.918 133.42M32.1116 226H65.3546H120.587H175.819H209.062H32.1116ZM195.037 215.732H179.454V150.5C179.454 148.291 177.666 146.5 175.457 146.5C166.594 146.5 145.705 146.5 141 146.5V130C141 129.49 141.71 128.494 142.402 127.474C145.519 123.228 148.809 119.151 152.098 114.904L158.158 107.09C163.179 106.58 173.048 105.221 176.857 104.542C202.136 99.9551 218.238 84.3269 222.047 60.8846C222.74 56.2981 224.644 34.5545 223.779 32.1763C223.259 30.6474 221.701 29.7981 220.143 29.7981H191.921V17.7372C191.921 15.6987 190.189 14 188.112 14H53.0616C50.9839 14 49.2525 15.6987 49.2525 17.7372V29.9679H20.8574C19.2991 29.9679 17.914 30.9872 17.2214 32.3462C16.3557 34.7244 18.2603 56.4679 18.9528 61.0545C22.7619 84.4968 38.6909 99.9551 64.1426 104.712C67.9517 105.391 77.8208 106.58 82.8418 107.26L88.9018 115.244C92.1915 119.321 95.308 123.567 98.4245 127.644C99.1171 128.494 99 129.513 99 130.022V146.5H65.3724C63.1632 146.5 61.3724 148.291 61.3724 150.5V215.732H45.9628H195.037ZM65.5278 97.2372C43.712 93.1603 29.8607 79.9103 26.571 59.8654C25.7053 54.0897 24.8396 42.5385 24.6665 37.4423H49.5988C53.0616 63.7724 67.7786 86.875 76.4356 98.4263L76.6088 98.5962C72.1071 98.2564 67.7786 97.5769 65.5278 97.2372ZM214.256 59.8654C210.966 79.9103 197.115 93.1603 175.299 97.2372C173.221 97.5769 168.72 98.2564 164.391 98.766L164.564 98.5962C173.221 86.875 187.938 63.9423 191.401 37.6122H216.16C215.987 43.0481 215.295 54.2596 214.256 59.8654Z" stroke="black" stroke-width="4" stroke-miterlimit="10"/>
<path d="M107.453 68.4637L102.496 83.7151C102.059 85.0223 102.496 86.4749 103.662 87.3464C104.829 88.2179 106.287 88.2179 107.453 87.3464L120.427 77.905L133.547 87.3464C134.13 87.7821 134.713 87.9274 135.442 87.9274C136.171 87.9274 136.754 87.7821 137.338 87.3464C138.504 86.4749 138.941 85.0223 138.504 83.7151L133.547 68.4637L146.667 59.0223C147.834 58.1508 148.271 56.6983 147.834 55.3911C147.396 54.0838 146.084 53.2123 144.772 53.2123H128.591L123.634 37.9609C122.76 35.3464 118.386 35.3464 117.512 37.9609L112.555 53.2123H96.2277C94.7699 53.2123 93.6037 54.0838 93.1664 55.3911C92.729 56.6983 93.1664 58.1508 94.3326 59.0223L107.453 68.4637Z" stroke="#F56A00" stroke-width="4" stroke-miterlimit="10"/>
</svg>
