<?xml version="1.0" encoding="utf-8"?>
<!-- Generator: Adobe Illustrator 22.1.0, SVG Export Plug-In . SVG Version: 6.00 Build 0)  -->
<svg version="1.1" id="Layer_1" xmlns="http://www.w3.org/2000/svg" xmlns:xlink="http://www.w3.org/1999/xlink" x="0px" y="0px"
	 width="135.8px" height="164.7px" viewBox="0 0 135.8 164.7" style="enable-background:new 0 0 135.8 164.7;" xml:space="preserve"
	>
<style type="text/css">
	.st0{fill:none;stroke:#000000;stroke-width:2;stroke-miterlimit:10;}
	.st1{fill:none;stroke:#F56A00;stroke-width:2.3083;stroke-miterlimit:10;}
</style>
<path class="st0" d="M30.6,163.7V61.8c0-1.4,1.1-2.5,2.5-2.5h69.6c1.4,0,2.5,1.1,2.5,2.5v101.9H30.6z"/>
<path class="st0" d="M100.8,59.3l1.2-6.2H33.8l1.2,6.2"/>
<path class="st0" d="M104.3,52.9L67.9,38.4L31.6,52.9l-1.8-4.6L67,33.4c0.6-0.2,1.3-0.2,1.8,0l37.3,14.9L104.3,52.9z"/>
<path class="st0" d="M68.9,40.9"/>
<path class="st0" d="M84.3,52.9l-16.4-7l-16.4,7"/>
<path class="st0" d="M51.9,163.7v-21c0-1.5,0.9-2.6,2-2.6h27.9c1.1,0,2,1.2,2,2.6v21"/>
<line class="st0" x1="67.9" y1="163.7" x2="67.9" y2="140.1"/>
<path class="st0" d="M105.2,82.9H125v74.6h5V92.9V80.5V73h-4.9c0,1.4-1.1,2.5-2.5,2.5h-9.9c-1.4,0-2.5-1.1-2.5-2.5h-5"/>
<rect x="110.9" y="87.9" class="st0" width="8.7" height="9.9"/>
<rect x="110.9" y="102.8" class="st0" width="8.7" height="9.9"/>
<rect x="110.9" y="117.7" class="st0" width="8.7" height="9.9"/>
<rect x="110.9" y="132.6" class="st0" width="8.7" height="9.9"/>
<rect x="110.9" y="147.6" class="st0" width="8.7" height="9.9"/>
<rect x="39.2" y="67.8" class="st0" width="8.2" height="17.2"/>
<rect x="55.6" y="67.8" class="st0" width="8.2" height="17.2"/>
<rect x="72" y="67.8" class="st0" width="8.2" height="17.2"/>
<rect x="88.4" y="67.8" class="st0" width="8.2" height="17.2"/>
<rect x="39.2" y="90.8" class="st0" width="8.2" height="17.2"/>
<rect x="55.6" y="90.8" class="st0" width="8.2" height="17.2"/>
<rect x="72" y="90.8" class="st0" width="8.2" height="17.2"/>
<rect x="88.4" y="90.8" class="st0" width="8.2" height="17.2"/>
<rect x="39.2" y="113.7" class="st0" width="8.2" height="17.2"/>
<rect x="39.2" y="140.1" class="st0" width="6.4" height="15.8"/>
<rect x="55.6" y="113.7" class="st0" width="8.2" height="17.2"/>
<rect x="72" y="113.7" class="st0" width="8.2" height="17.2"/>
<rect x="88.4" y="113.7" class="st0" width="8.2" height="17.2"/>
<rect x="90.3" y="140.1" class="st0" width="6.4" height="15.8"/>
<polygon class="st1" points="125.1,25.4 122.5,30.5 116.8,31.4 120.9,35.4 120,41.1 125.1,38.4 130.2,41.1 129.2,35.4 133.3,31.4 
	127.6,30.5 "/>
<polygon class="st1" points="97.6,8.7 95.1,13.8 89.4,14.7 93.5,18.7 92.5,24.4 97.6,21.7 102.7,24.4 101.8,18.7 105.9,14.7 
	100.2,13.8 "/>
<polygon class="st1" points="67.9,2.6 65.4,7.8 59.6,8.6 63.8,12.6 62.8,18.3 67.9,15.6 73,18.3 72,12.6 76.2,8.6 70.5,7.8 "/>
<polygon class="st1" points="10.7,25.4 13.3,30.5 19,31.4 14.9,35.4 15.8,41.1 10.7,38.4 5.6,41.1 6.6,35.4 2.5,31.4 8.2,30.5 "/>
<polygon class="st1" points="38.2,8.7 40.7,13.8 46.4,14.7 42.3,18.7 43.3,24.4 38.2,21.7 33.1,24.4 34,18.7 29.9,14.7 35.6,13.8 
	"/>
<path class="st0" d="M31.4,73h-5c0,1.4-1.1,2.5-2.5,2.5H14c-1.4,0-2.5-1.1-2.5-2.5H6.6v7.5v12.4v64.6h5V82.9h19.9"/>
<rect x="17" y="87.9" class="st0" width="8.7" height="9.9"/>
<rect x="17" y="102.8" class="st0" width="8.7" height="9.9"/>
<rect x="17" y="117.7" class="st0" width="8.7" height="9.9"/>
<rect x="17" y="132.6" class="st0" width="8.7" height="9.9"/>
<rect x="17" y="147.6" class="st0" width="8.7" height="9.9"/>
</svg>
