<svg width="240" height="240" viewBox="0 0 240 240" fill="none" xmlns="http://www.w3.org/2000/svg">
<path d="M65.2152 228V78.5399C65.2152 76.4865 66.8286 74.8731 68.8821 74.8731H170.967C173.02 74.8731 174.634 76.4865 174.634 78.5399V228H65.2152Z" stroke="black" stroke-width="4" stroke-miterlimit="10"/>
<path d="M168.18 74.873L169.94 65.7792H69.9088L71.6689 74.873" stroke="black" stroke-width="4" stroke-miterlimit="10"/>
<path d="M173.314 65.4858L119.924 44.2182L66.682 65.4858L64.0418 58.7389L118.604 36.8845C119.484 36.5912 120.511 36.5912 121.244 36.8845L175.954 58.7389L173.314 65.4858Z" stroke="black" stroke-width="4" stroke-miterlimit="10"/>
<path d="M143.979 65.4859L119.924 55.2188L95.87 65.4859" stroke="black" stroke-width="4" stroke-miterlimit="10"/>
<path d="M96.4567 228V197.199C96.4567 194.998 97.7767 193.385 99.3901 193.385H140.312C141.925 193.385 143.245 195.145 143.245 197.199V228" stroke="black" stroke-width="4" stroke-miterlimit="10"/>
<path d="M119.924 228V193.385" stroke="black" stroke-width="4" stroke-miterlimit="10"/>
<path d="M174 219H216V124.202V106.006V95H207.702C207.702 97.0544 205.839 98.6686 203.468 98.6686H186.702C184.331 98.6686 182.468 97.0544 182.468 95H174" stroke="black" stroke-width="4" stroke-miterlimit="10"/>
<path d="M202 116.821H188V131.342H202V116.821Z" stroke="black" stroke-width="4" stroke-miterlimit="10"/>
<path d="M202 138.676H188V153.197H202V138.676Z" stroke="black" stroke-width="4" stroke-miterlimit="10"/>
<path d="M202 160.53H188V175.051H202V160.53Z" stroke="black" stroke-width="4" stroke-miterlimit="10"/>
<path d="M202 182.385H188V196.905H202V182.385Z" stroke="black" stroke-width="4" stroke-miterlimit="10"/>
<path d="M202 204.386H188V218.906H202V204.386Z" stroke="black" stroke-width="4" stroke-miterlimit="10"/>
<path d="M89.8564 87.3401H77.8291V112.568H89.8564V87.3401Z" stroke="black" stroke-width="4" stroke-miterlimit="10"/>
<path d="M113.911 87.3401H101.884V112.568H113.911V87.3401Z" stroke="black" stroke-width="4" stroke-miterlimit="10"/>
<path d="M137.965 87.3401H125.938V112.568H137.965V87.3401Z" stroke="black" stroke-width="4" stroke-miterlimit="10"/>
<path d="M162.02 87.3401H149.992V112.568H162.02V87.3401Z" stroke="black" stroke-width="4" stroke-miterlimit="10"/>
<path d="M89.8564 121.075H77.8291V146.303H89.8564V121.075Z" stroke="black" stroke-width="4" stroke-miterlimit="10"/>
<path d="M113.911 121.075H101.884V146.303H113.911V121.075Z" stroke="black" stroke-width="4" stroke-miterlimit="10"/>
<path d="M137.965 121.075H125.938V146.303H137.965V121.075Z" stroke="black" stroke-width="4" stroke-miterlimit="10"/>
<path d="M162.02 121.075H149.992V146.303H162.02V121.075Z" stroke="black" stroke-width="4" stroke-miterlimit="10"/>
<path d="M89.8564 154.663H77.8291V179.891H89.8564V154.663Z" stroke="black" stroke-width="4" stroke-miterlimit="10"/>
<path d="M87.2162 193.385H77.8291V216.559H87.2162V193.385Z" stroke="black" stroke-width="4" stroke-miterlimit="10"/>
<path d="M113.911 154.663H101.884V179.891H113.911V154.663Z" stroke="black" stroke-width="4" stroke-miterlimit="10"/>
<path d="M137.965 154.663H125.938V179.891H137.965V154.663Z" stroke="black" stroke-width="4" stroke-miterlimit="10"/>
<path d="M162.02 154.663H149.992V179.891H162.02V154.663Z" stroke="black" stroke-width="4" stroke-miterlimit="10"/>
<path d="M162.166 193.385H152.779V216.559H162.166V193.385Z" stroke="black" stroke-width="4" stroke-miterlimit="10"/>
<path d="M202.262 40.3395C202.08 39.9695 201.555 39.9654 201.367 40.3325L198.124 46.6948C198.051 46.8375 197.915 46.9367 197.756 46.9616L190.633 48.0864C190.226 48.1506 190.067 48.6509 190.361 48.9382L195.476 53.9284C195.592 54.0416 195.646 54.2041 195.621 54.3642L194.497 61.4815C194.433 61.8885 194.861 62.1941 195.225 62.0014L201.588 58.6329C201.734 58.5555 201.909 58.5555 202.056 58.6329L208.399 61.9912C208.767 62.1858 209.197 61.8726 209.125 61.4629L207.881 54.3688C207.852 54.2062 207.906 54.0399 208.024 53.9246L213.135 48.9382C213.43 48.6509 213.27 48.1506 212.864 48.0864L205.745 46.9624C205.584 46.937 205.446 46.8348 205.374 46.6886L202.262 40.3395Z" stroke="#F56A00" stroke-width="4" stroke-miterlimit="10"/>
<path d="M165.941 12.8381C165.753 12.471 165.228 12.4752 165.046 12.8451L161.934 19.1942C161.862 19.3404 161.724 19.4426 161.563 19.468L154.444 20.592C154.038 20.6562 153.878 21.1565 154.173 21.4438L159.284 26.4302C159.402 26.5455 159.456 26.7118 159.427 26.8745L158.183 33.9685C158.111 34.3782 158.541 34.6914 158.909 34.4968L165.252 31.1385C165.399 31.0611 165.574 31.0611 165.72 31.1385L172.083 34.507C172.447 34.6998 172.875 34.3941 172.811 33.9871L171.687 26.8698C171.662 26.7097 171.716 26.5472 171.832 26.434L176.947 21.4438C177.241 21.1565 177.082 20.6562 176.675 20.592L169.552 19.4672C169.394 19.4423 169.257 19.3431 169.184 19.2004L165.941 12.8381Z" stroke="#F56A00" stroke-width="4" stroke-miterlimit="10"/>
<path d="M120.38 2.91203C120.195 2.54031 119.663 2.54443 119.483 2.91899L116.374 9.38504C116.301 9.53615 116.158 9.6408 115.992 9.66371L108.778 10.6586C108.364 10.7159 108.199 11.2272 108.502 11.516L113.717 16.4827C113.838 16.598 113.893 16.7663 113.865 16.9311L112.621 24.0214C112.549 24.4311 112.979 24.7443 113.347 24.5497L119.69 21.1914C119.837 21.1139 120.012 21.1139 120.158 21.1914L126.502 24.5497C126.869 24.7443 127.3 24.4311 127.228 24.0214L125.984 16.9311C125.955 16.7663 126.011 16.598 126.132 16.4827L131.349 11.5138C131.652 11.2254 131.488 10.7148 131.074 10.6566L123.998 9.66354C123.835 9.64068 123.694 9.53914 123.62 9.392L120.38 2.91203Z" stroke="#F56A00" stroke-width="4" stroke-miterlimit="10"/>
<path d="M37.587 40.3395C37.7684 39.9695 38.2943 39.9654 38.4814 40.3325L41.725 46.6948C41.7977 46.8375 41.9343 46.9367 42.0925 46.9616L49.2163 48.0864C49.6227 48.1506 49.782 48.6509 49.4874 48.9382L44.3725 53.9284C44.2565 54.0416 44.2025 54.2041 44.2278 54.3642L45.3516 61.4815C45.4159 61.8885 44.9879 62.1941 44.6238 62.0014L38.2612 58.6329C38.1148 58.5555 37.9396 58.5555 37.7933 58.6329L31.4498 61.9912C31.0822 62.1858 30.6515 61.8726 30.7234 61.4629L31.968 54.3688C31.9965 54.2062 31.9429 54.0399 31.8247 53.9246L26.7137 48.9382C26.4191 48.6509 26.5784 48.1506 26.9849 48.0864L34.1038 46.9624C34.2646 46.937 34.4031 46.8348 34.4747 46.6886L37.587 40.3395Z" stroke="#F56A00" stroke-width="4" stroke-miterlimit="10"/>
<path d="M73.9082 12.8381C74.0953 12.471 74.6212 12.4752 74.8026 12.8451L77.9149 19.1942C77.9866 19.3404 78.125 19.4426 78.2859 19.468L85.4048 20.592C85.8112 20.6562 85.9705 21.1565 85.676 21.4438L80.565 26.4302C80.4467 26.5455 80.3931 26.7118 80.4216 26.8745L81.6662 33.9685C81.7381 34.3782 81.3074 34.6914 80.9398 34.4968L74.5964 31.1385C74.45 31.0611 74.2748 31.0611 74.1285 31.1385L67.7659 34.507C67.4017 34.6998 66.9738 34.3941 67.038 33.9871L68.1618 26.8698C68.1871 26.7097 68.1332 26.5472 68.0171 26.434L62.9022 21.4438C62.6077 21.1565 62.7669 20.6562 63.1734 20.592L70.2972 19.4672C70.4553 19.4423 70.5919 19.3431 70.6647 19.2004L73.9082 12.8381Z" stroke="#F56A00" stroke-width="4" stroke-miterlimit="10"/>
<path d="M66 95H57.5323C57.5323 97.0544 55.6694 98.6686 53.2984 98.6686H36.5323C34.1613 98.6686 32.2984 97.0544 32.2984 95H24V106.006V124.202V219H66" stroke="black" stroke-width="4" stroke-miterlimit="10"/>
<path d="M52 116.821H38V131.342H52V116.821Z" stroke="black" stroke-width="4" stroke-miterlimit="10"/>
<path d="M52 138.676H38V153.197H52V138.676Z" stroke="black" stroke-width="4" stroke-miterlimit="10"/>
<path d="M52 160.53H38V175.051H52V160.53Z" stroke="black" stroke-width="4" stroke-miterlimit="10"/>
<path d="M52 182.385H38V196.905H52V182.385Z" stroke="black" stroke-width="4" stroke-miterlimit="10"/>
<path d="M52 204.386H38V218.906H52V204.386Z" stroke="black" stroke-width="4" stroke-miterlimit="10"/>
</svg>
