<?xml version="1.0" encoding="utf-8"?>
<!-- Generator: Adobe Illustrator 22.1.0, SVG Export Plug-In . SVG Version: 6.00 Build 0)  -->
<svg version="1.1" id="Layer_1" xmlns="http://www.w3.org/2000/svg" xmlns:xlink="http://www.w3.org/1999/xlink" x="0px" y="0px"
	 width="132px" height="148.6px" viewBox="0 0 132 148.6" style="enable-background:new 0 0 132 148.6;" xml:space="preserve">
<style type="text/css">
	.st0{fill:none;stroke:#000000;stroke-width:2;stroke-miterlimit:10;}
	.st1{fill:none;stroke:#F56A00;stroke-width:4;stroke-miterlimit:10;}
</style>
<path class="st0" d="M67.3,99h28.4"/>
<path class="st0" d="M36.2,99h21.3"/>
<path class="st0" d="M67.3,119h28.4"/>
<path class="st0" d="M36.2,119h21.3"/>
<path class="st0" d="M36.2,109h28.4"/>
<path class="st0" d="M74.5,109h21.3"/>
<path class="st0" d="M33.3,20.2h-15c-1.3,0-2.3,1-2.3,2.3v23.1v98.7c0,1.3,1,2.3,2.3,2.3h95.4c1.3,0,2.3-1,2.3-2.3V22.5
	c0-1.3-1-2.3-2.3-2.3h-15"/>
<path class="st0" d="M33.3,30.3h-4.9c-1.3,0-2.3,1-2.3,2.3v101.5c0,1.3,1,2.3,2.3,2.3h75.1c1.3,0,2.3-1,2.3-2.3V32.6
	c0-1.3-1-2.3-2.3-2.3h-4.9"/>
<path class="st0" d="M66,8.1c2.7,0,4.8,2.2,4.8,4.8c0,2.7-2.2,4.8-4.8,4.8c-2.7,0-4.8-2.2-4.8-4.8C61.2,10.2,63.3,8.1,66,8.1z"/>
<path class="st1" d="M52.6,76.5h5.8v5.8c0,1.3,1,2.3,2.3,2.3h10.9c1.3,0,2.3-1,2.3-2.3v-5.8h5.8c1.3,0,2.3-1,2.3-2.3V63.3
	c0-1.3-1-2.3-2.3-2.3h-5.8v-5.8c0-1.3-1-2.3-2.3-2.3H60.7c-1.3,0-2.3,1-2.3,2.3V61h-5.8c-1.3,0-2.3,1-2.3,2.3v10.9
	C50.3,75.5,51.4,76.5,52.6,76.5z"/>
<path class="st0" d="M52.1,14.2c1.2,0,2.2-1,2.3-2.2C54.7,5.8,59.8,1,66,1s11.3,4.8,11.6,11c0.1,1.2,1.1,2.2,2.3,2.2h11.3v22.7H40.9
	V14.2H52.1z"/>
<line class="st0" x1="91.1" y1="25" x2="40.9" y2="25"/>
</svg>
