<svg width="240" height="240" viewBox="0 0 240 240" fill="none" xmlns="http://www.w3.org/2000/svg">
<g clip-path="url(#clip0)">
<path d="M121.861 156.195H162.512" stroke="black" stroke-width="4" stroke-miterlimit="10"/>
<path d="M77.3451 156.195H107.833" stroke="black" stroke-width="4" stroke-miterlimit="10"/>
<path d="M121.861 184.921H162.512" stroke="black" stroke-width="4" stroke-miterlimit="10"/>
<path d="M77.3451 184.921H107.833" stroke="black" stroke-width="4" stroke-miterlimit="10"/>
<path d="M77.3451 170.558H117.996" stroke="black" stroke-width="4" stroke-miterlimit="10"/>
<path d="M132.167 170.558H162.655" stroke="black" stroke-width="4" stroke-miterlimit="10"/>
<path d="M73.1941 43.0135H51.7235C49.8627 43.0135 48.4314 44.4499 48.4314 46.3171V79.4959V221.26C48.4314 223.127 49.8627 224.564 51.7235 224.564H188.276C190.137 224.564 191.569 223.127 191.569 221.26V46.3171C191.569 44.4499 190.137 43.0135 188.276 43.0135H166.806" stroke="black" stroke-width="4" stroke-miterlimit="10"/>
<path d="M73.1941 57.5203H66.1804C64.3196 57.5203 62.8882 58.9566 62.8882 60.8238V206.61C62.8882 208.477 64.3196 209.913 66.1804 209.913H173.676C175.537 209.913 176.969 208.477 176.969 206.61V60.8238C176.969 58.9566 175.537 57.5203 173.676 57.5203H166.663" stroke="black" stroke-width="4" stroke-miterlimit="10"/>
<path d="M120 25.6342C123.865 25.6342 126.871 28.794 126.871 32.5285C126.871 36.4065 123.722 39.4228 120 39.4228C116.135 39.4228 113.129 36.2629 113.129 32.5285C113.129 28.6504 116.135 25.6342 120 25.6342Z" stroke="black" stroke-width="4" stroke-miterlimit="10"/>
<path d="M100.82 123.878H109.122V132.209C109.122 134.076 110.553 135.512 112.414 135.512H128.016C129.876 135.512 131.308 134.076 131.308 132.209V123.878H139.61C141.471 123.878 142.902 122.442 142.902 120.575V104.919C142.902 103.051 141.471 101.615 139.61 101.615H131.308V93.2845C131.308 91.4173 129.876 89.981 128.016 89.981H112.414C110.553 89.981 109.122 91.4173 109.122 93.2845V101.615H100.82C98.9588 101.615 97.5274 103.051 97.5274 104.919V120.575C97.5274 122.442 99.1019 123.878 100.82 123.878Z" stroke="#F56A00" stroke-width="4" stroke-miterlimit="10"/>
<path d="M100.104 34.3957C101.822 34.3957 103.253 32.9593 103.396 31.2358C103.825 22.3306 111.125 15.4363 120 15.4363C128.875 15.4363 136.174 22.3306 136.604 31.2358C136.747 32.9593 138.178 34.3957 139.896 34.3957H156.071V67H84.0725V34.3957H100.104Z" stroke="black" stroke-width="4" stroke-miterlimit="10"/>
<path d="M155.927 49.9079H84.0725" stroke="black" stroke-width="4" stroke-miterlimit="10"/>
</g>
<defs>
<clipPath id="clip0">
<rect x="47" y="14" width="146" height="212" fill="white"/>
</clipPath>
</defs>
</svg>
