<?xml version="1.0" encoding="utf-8"?>
<!-- Generator: Adobe Illustrator 22.1.0, SVG Export Plug-In . SVG Version: 6.00 Build 0)  -->
<svg version="1.1" id="Layer_1" xmlns="http://www.w3.org/2000/svg" xmlns:xlink="http://www.w3.org/1999/xlink" x="0px" y="0px"
	 width="122.5px" height="152.5px" viewBox="0 0 122.5 152.5" style="enable-background:new 0 0 122.5 152.5;" xml:space="preserve"
	>
<style type="text/css">
	.st0{fill:none;stroke:#000000;stroke-width:2;stroke-miterlimit:10;}
	.st1{fill:none;stroke:#F56A00;stroke-width:4;stroke-miterlimit:10;}
</style>
<g>
	<path class="st0" d="M51.7,136.7l11.2,13.1c1,1,2.7,0.9,3.7-0.1l5.4-5.7c-0.3-0.2-0.6-0.4-0.8-0.6"/>
	<path class="st0" d="M23.5,64.4l-16,17.1c-1,1-0.9,2.7,0.1,3.7l22.2,25.9"/>
	<g>
		<path class="st0" d="M34.1,109.4L3.9,121.6c-2.4,1-3.6,3.7-2.6,6.1l8.4,20.9c1,2.4,3.7,3.6,6.1,2.6l44.2-17.9"/>
		<path class="st0" d="M2.8,131.3c4.3-1.7,6.3-6.6,4.6-10.9"/>
		<path class="st0" d="M19.6,149.7c-1.8-4.4-6.8-6.6-11.2-4.8"/>
		<path class="st0" d="M34.5,119.6c-1.6-0.1-3.1,0.1-4.3,0.6c-1.1,0.5-1.8,1.1-2.1,1.8c-0.3,0.8-0.2,1.8,0.3,3l1.6,3.9l0.7,1.7
			l1.2,2.9c0.4,0.9,0.5,1.7,0.5,2.4c0,0.7-1.5,2.4-0.8,2.1s10.4-4.4,10.4-4.4"/>
		<line class="st0" x1="26.6" y1="130.4" x2="35.6" y2="126.6"/>
	</g>
	<path class="st0" d="M104.3,116.1l-14.4-13.5c-1-1-2.7-0.9-3.7,0.1l-4.8,5.1c-1,1-0.9,2.7,0.1,3.7L96,125.1"/>
	<circle class="st0" cx="88.4" cy="109.6" r="2.3"/>
	<path class="st0" d="M7.6,85.2l63.5,58.1c2.3,2.1,5.9,2,8-0.3l40.8-43.5c2.1-2.3,2-5.9-0.3-8L101,74"/>
</g>
<g>
	<path class="st0" d="M105,19.1c-0.6-0.6-1.5-0.8-2.4-0.7l-0.7,0.1c-13.1,1.7-26.2-3.3-34.9-13.3l-3-3.6l-3,3.6
		c-8.7,10-21.7,14.9-34.9,13.3l-0.7-0.1c-0.9-0.1-1.7,0.2-2.4,0.7c-0.6,0.6-1,1.4-1,2.2v32c0,14.8,7.2,28.6,19.4,37l20.9,14.5
		c0.5,0.3,1,0.5,1.6,0.5l0.1,0c0.6,0,1.2-0.2,1.7-0.5l20.9-14.5C98.8,81.9,106,68,106,53.3v-32C106,20.5,105.7,19.6,105,19.1z"/>
	<path class="st1" d="M50.1,59.9l8.5,9.6c1.3,0.9,3,0.7,4-0.5l20.1-25.9"/>
	<path class="st0" d="M64.5,90.6c0.4-0.1,0.9-0.2,1.3-0.5l14.1-9.7c8.9-6.2,14.2-16.3,14.2-27.1V33.4c0-1.5-1.2-2.8-2.7-3
		c-9-1-17.5-4.3-24.8-9.6l-2.5-2.1l-2.5,2.1c-7.3,5.3-15.8,8.6-24.8,9.6c-1.5,0.2-2.7,1.4-2.7,3v19.9c0,10.8,5.3,20.9,14.2,27.1
		l14.1,9.7c0.4,0.3,0.8,0.4,1.3,0.5H64.5z M63.9,98.5 M63.9,98.5"/>
	<path class="st0" d="M63.9,98.5"/>
	<path class="st0" d="M100.1,53.3c0,12.8-6.3,24.8-16.8,32l-19,13.1h-0.4l-19-13.1c-10.5-7.3-16.8-19.3-16.8-32V24.7
		c12.2,0.8,24.1-3.3,33.2-11.3l2.8-2.5l2.8,2.5c9.1,8,21,12.1,33.2,11.3V53.3z"/>
</g>
</svg>
