<svg width="240" height="240" viewBox="0 0 240 240" fill="none" xmlns="http://www.w3.org/2000/svg">
<g clip-path="url(#clip0)">
<path d="M106.584 207.207L122.741 226.105C124.184 227.548 126.636 227.403 128.079 225.961L135.869 217.738C135.436 217.449 135.003 217.161 134.715 216.872" stroke="black" stroke-width="4" stroke-miterlimit="10"/>
<path d="M65.9016 102.905L42.8197 127.574C41.377 129.016 41.5213 131.469 42.9639 132.911L74.9902 170.275" stroke="black" stroke-width="4" stroke-miterlimit="10"/>
<path d="M81.1934 167.823L37.6262 185.423C34.1639 186.866 32.4328 190.761 33.8754 194.223L45.9934 224.374C47.436 227.836 51.3311 229.567 54.7934 228.125L118.557 202.302" stroke="black" stroke-width="4" stroke-miterlimit="10"/>
<path d="M36.0393 199.416C42.2426 196.964 45.1278 189.895 42.6754 183.692" stroke="black" stroke-width="4" stroke-miterlimit="10"/>
<path d="M60.2754 225.961C57.6786 219.613 50.4655 216.439 44.118 219.036" stroke="black" stroke-width="4" stroke-miterlimit="10"/>
<path d="M81.7704 182.538C79.4622 182.394 77.2983 182.682 75.5671 183.403C73.9803 184.125 72.9704 184.99 72.5376 186C72.1048 187.154 72.2491 188.597 72.9704 190.328L75.2786 195.954L76.2885 198.407L78.0196 202.59C78.5966 203.889 78.7409 205.043 78.7409 206.053C78.7409 207.062 76.577 209.515 77.5868 209.082C78.5966 208.649 92.5901 202.735 92.5901 202.735" stroke="black" stroke-width="4" stroke-miterlimit="10"/>
<path d="M70.3737 198.118L83.3573 192.636" stroke="black" stroke-width="4" stroke-miterlimit="10"/>
<path d="M182.465 177.489L161.692 158.013C160.249 156.57 157.797 156.715 156.354 158.157L149.429 165.515C147.987 166.957 148.131 169.41 149.574 170.852L170.492 190.472" stroke="black" stroke-width="4" stroke-miterlimit="10"/>
<path d="M159.528 171.43C161.36 171.43 162.846 169.944 162.846 168.111C162.846 166.279 161.36 164.793 159.528 164.793C157.695 164.793 156.21 166.279 156.21 168.111C156.21 169.944 157.695 171.43 159.528 171.43Z" stroke="black" stroke-width="4" stroke-miterlimit="10"/>
<path d="M42.9639 132.911L134.57 216.728C137.889 219.757 143.082 219.613 146.111 216.295L204.97 153.541C208 150.223 207.856 145.03 204.538 142L177.705 116.754" stroke="black" stroke-width="4" stroke-miterlimit="10"/>
<path d="M183.475 37.5541C182.61 36.6885 181.311 36.4 180.013 36.5443L179.003 36.6885C160.105 39.141 141.207 31.9279 128.656 17.5016L124.328 12.3082L120 17.5016C107.449 31.9279 88.695 38.9967 69.6524 36.6885L68.6426 36.5443C67.3442 36.4 66.1901 36.8328 65.1803 37.5541C64.3147 38.4197 63.7377 39.5738 63.7377 40.7279V86.8918C63.7377 108.243 74.1246 128.151 91.7246 140.269L121.875 161.187C122.597 161.62 123.318 161.908 124.184 161.908H124.328C125.193 161.908 126.059 161.62 126.78 161.187L156.931 140.269C174.531 128.151 184.918 108.098 184.918 86.8918V40.7279C184.918 39.5738 184.485 38.2754 183.475 37.5541Z" stroke="black" stroke-width="4" stroke-miterlimit="10"/>
<path d="M104.275 96.4131L116.538 110.262C118.413 111.561 120.866 111.272 122.308 109.541L151.305 72.1771" stroke="#F56A00" stroke-width="4" stroke-miterlimit="10"/>
<path d="M125.049 140.702C125.626 140.557 126.348 140.413 126.925 139.98L147.266 125.987C160.105 117.043 167.751 102.472 167.751 86.8918V58.1836C167.751 56.0197 166.02 54.1443 163.856 53.8557C150.872 52.4131 138.61 47.6525 128.079 40.0066L124.472 36.9771L120.866 40.0066C110.334 47.6525 98.0721 52.4131 85.0885 53.8557C82.9246 54.1443 81.1934 55.8754 81.1934 58.1836V86.8918C81.1934 102.472 88.8393 117.043 101.679 125.987L122.02 139.98C122.597 140.413 123.174 140.557 123.895 140.702H125.049V140.702Z" stroke="black" stroke-width="4" stroke-miterlimit="10"/>
<path d="M176.407 86.8918C176.407 105.357 167.318 122.669 152.17 133.056L124.761 151.954H124.184L96.7737 133.056C81.6262 122.525 72.5377 105.213 72.5377 86.8918V45.6328C90.1377 46.7869 107.305 40.8721 120.433 29.3311L124.472 25.7246L128.511 29.3311C141.639 40.8721 158.807 46.7869 176.407 45.6328V86.8918Z" stroke="black" stroke-width="4" stroke-miterlimit="10"/>
</g>
<defs>
<clipPath id="clip0">
<rect x="32" y="10" width="176.721" height="220" fill="white"/>
</clipPath>
</defs>
</svg>
