<svg width="240" height="240" viewBox="0 0 240 240" fill="none" xmlns="http://www.w3.org/2000/svg">
<path d="M33.4238 78.5755H54.8921" stroke="black" stroke-width="4" stroke-miterlimit="10"/>
<path d="M69.7155 78.5755H130.031" stroke="#F56A00" stroke-width="4" stroke-miterlimit="10"/>
<path d="M61.8779 91.8655H130.031" stroke="#F56A00" stroke-width="4" stroke-miterlimit="10"/>
<path d="M33.4238 91.8655H49.2695" stroke="black" stroke-width="4" stroke-miterlimit="10"/>
<path d="M33.4238 105.155H49.2695" stroke="black" stroke-width="4" stroke-miterlimit="10"/>
<path d="M60.6852 105.155H78.7459" stroke="#F56A00" stroke-width="4" stroke-miterlimit="10"/>
<path d="M33.4238 126.283H52.6771" stroke="black" stroke-width="4" stroke-miterlimit="10"/>
<path d="M63.7521 126.283H130.031" stroke="#F56A00" stroke-width="4" stroke-miterlimit="10"/>
<path d="M33.4238 139.573H59.4925" stroke="black" stroke-width="4" stroke-miterlimit="10"/>
<path d="M72.612 139.573H130.031" stroke="#F56A00" stroke-width="4" stroke-miterlimit="10"/>
<path d="M33.4238 152.863H72.7378" stroke="black" stroke-width="4" stroke-miterlimit="10"/>
<path d="M33.4238 166.153H73.464" stroke="black" stroke-width="4" stroke-miterlimit="10"/>
<path d="M33.4238 179.443H130.031" stroke="black" stroke-width="4" stroke-miterlimit="10"/>
<path d="M33.4238 192.733H101.748" stroke="black" stroke-width="4" stroke-miterlimit="10"/>
<path d="M152 69.0617V18.8233C152 14.9743 149.095 12 145.337 12H20.6633C16.9045 12 14 14.9743 14 18.8233V209.177C14 213.026 16.9045 216 20.6633 216H145.337C149.095 216 152 213.026 152 209.177V144.467" stroke="black" stroke-width="4" stroke-miterlimit="10"/>
<path d="M120.869 163.208C152.097 155.834 171.435 124.541 164.061 93.3123C156.687 62.0841 125.394 42.7462 94.1659 50.1201C62.9376 57.494 43.5998 88.7872 50.9737 120.016C58.3475 151.244 89.6408 170.582 120.869 163.208Z" stroke="black" stroke-width="4" stroke-miterlimit="10"/>
<path d="M141.325 140.524C160.022 121.827 160.022 91.5129 141.325 72.8156C122.627 54.1183 92.3131 54.1183 73.6158 72.8156C54.9185 91.5129 54.9185 121.827 73.6158 140.524C92.3131 159.222 122.627 159.222 141.325 140.524Z" stroke="black" stroke-width="4" stroke-miterlimit="10"/>
<path d="M148.603 147.922L157.974 157.293" stroke="black" stroke-width="4" stroke-miterlimit="10"/>
<path d="M224.765 221.357L222.039 224.083C219.483 226.639 215.394 226.639 212.668 224.083L156.611 168.027C154.055 165.471 154.055 161.382 156.611 158.656L159.337 155.93C161.893 153.374 165.982 153.374 168.709 155.93L224.765 211.986C227.321 214.371 227.321 218.631 224.765 221.357Z" stroke="black" stroke-width="4" stroke-miterlimit="10"/>
<path d="M120.869 163.208C152.097 155.834 171.435 124.541 164.061 93.3123C156.687 62.0841 125.394 42.7462 94.1659 50.1201C62.9376 57.494 43.5998 88.7872 50.9737 120.016C58.3475 151.244 89.6408 170.582 120.869 163.208Z" stroke="black" stroke-width="4" stroke-miterlimit="10"/>
<path d="M141.325 140.524C160.022 121.827 160.022 91.5129 141.325 72.8156C122.627 54.1183 92.3131 54.1183 73.6158 72.8156C54.9185 91.5129 54.9185 121.827 73.6158 140.524C92.3131 159.222 122.627 159.222 141.325 140.524Z" stroke="black" stroke-width="4" stroke-miterlimit="10"/>
<path d="M148.603 147.922L157.974 157.293" stroke="black" stroke-width="4" stroke-miterlimit="10"/>
<path d="M224.765 221.357L222.039 224.083C219.483 226.639 215.394 226.639 212.668 224.083L156.611 168.027C154.055 165.471 154.055 161.382 156.611 158.656L159.337 155.93C161.893 153.374 165.982 153.374 168.709 155.93L224.765 211.986C227.321 214.371 227.321 218.631 224.765 221.357Z" stroke="black" stroke-width="4" stroke-miterlimit="10"/>
<path d="M224.765 221.357L222.039 224.083C219.483 226.639 215.394 226.639 212.668 224.083L156.611 168.027C154.055 165.471 154.055 161.382 156.611 158.656L159.337 155.93C161.893 153.374 165.982 153.374 168.709 155.93L224.765 211.986C227.321 214.371 227.321 218.631 224.765 221.357Z" stroke="black" stroke-width="4" stroke-miterlimit="10"/>
<rect x="147" y="150.938" width="6.98269" height="12" transform="rotate(-45 147 150.938)" fill="white" stroke="black" stroke-width="4"/>
</svg>
